C:\GBW_MyPrograms\KinderuniversiteitApp\Resultaten\Ellis\Smurf\Smurf_v4.mot
version=1
nRows=9
nColumns=29
inDegrees=yes
endheader
                time	         pelvis_tilt	           pelvis_tx	           pelvis_ty	       hip_flexion_l	       hip_flexion_r	        knee_angle_l	        knee_angle_r	       ankle_angle_l	       ankle_angle_r	    lumbar_extension	hamstrings_r/activation	bifemsh_r/activation	glut_max_r/activation	iliopsoas_r/activation	rect_fem_r/activation	  vasti_r/activation	gastroc_r/activation	 soleus_r/activation	tib_ant_r/activation	hamstrings_l/activation	bifemsh_l/activation	glut_max_l/activation	iliopsoas_l/activation	rect_fem_l/activation	  vasti_l/activation	gastroc_l/activation	 soleus_l/activation	tib_ant_l/activation	
          1.40000000	          1.12224496	          1.33556142	          0.90056791	        -19.29241573	         24.06877326	        -11.52630533	         -8.91804835	          9.88605874	         -0.46520300	         -7.24975211	          0.10000000	          0.10000000	          0.10000000	          0.10000000	          0.10000000	          0.10000000	          0.10000000	          0.10000000	          0.10000000	          0.10000000	          0.10000000	          0.10000000	          0.10000000	          0.10000000	          0.10000000	          0.10000000	          0.10000000	          0.10000000	
          1.41400000	          1.06873103	          1.35124450	          0.89978857	        -19.20668577	         24.11928381	        -13.41799843	        -10.36965359	          8.40106904	         -1.35939275	         -6.95444924	          0.10000000	          0.10000000	          0.10000000	          0.10000000	          0.10000000	          0.10000000	          0.10000000	          0.10000000	          0.10000000	          0.10000000	          0.10000000	          0.10000000	          0.10000000	          0.10000000	          0.10000000	          0.10000000	          0.10000000	          0.10000000	
          1.42800000	          1.00324248	          1.36688056	          0.89914924	        -18.99231551	         24.15611739	        -15.47385136	        -11.84523663	          6.72314242	         -2.20528936	         -6.65113257	          0.10000000	          0.10000000	          0.10000000	          0.10000000	          0.10000000	          0.10000000	          0.10000000	          0.10000000	          0.10000000	          0.10000000	          0.10000000	          0.10000000	          0.10000000	          0.10000000	          0.10000000	          0.10000000	          0.10000000	          0.10000000	
          1.44200000	          0.92460366	          1.38240534	          0.89868127	        -18.61851315	         24.17001833	        -17.72249507	        -13.32578444	          4.84275538	         -2.96582743	         -6.34303299	          0.10000000	          0.10000000	          0.10000000	          0.10000000	          0.10000000	          0.10000000	          0.10000000	          0.10000000	          0.10000000	          0.10000000	          0.10000000	          0.10000000	          0.10000000	          0.10000000	          0.10000000	          0.10000000	          0.10000000	          0.10000000	
          1.45600000	          0.83294299	          1.39777422	          0.89840549	        -18.06134214	         24.14968317	        -20.18326598	        -14.78513786	          2.77523769	         -3.60046029	         -6.03515902	          0.10000000	          0.10000000	          0.10000000	          0.10000000	          0.10000000	          0.10000000	          0.10000000	          0.10000000	          0.10000000	          0.10000000	          0.10000000	          0.10000000	          0.10000000	          0.10000000	          0.10000000	          0.10000000	          0.10000000	          0.10000000	
          1.47000000	          0.72959541	          1.41295511	          0.89833276	        -17.30439577	         24.08228405	        -22.86386961	        -16.19213340	          0.56176067	         -4.07053863	         -5.73383207	          0.10000000	          0.10000000	          0.10000000	          0.10000000	          0.10000000	          0.10000000	          0.10000000	          0.10000000	          0.10000000	          0.10000000	          0.10000000	          0.10000000	          0.10000000	          0.10000000	          0.10000000	          0.10000000	          0.10000000	          0.10000000	
          1.48400000	          0.61682399	          1.42792360	          0.89846532	        -16.33885989	         23.95443802	        -25.75911542	        -17.51351195	         -1.73297607	         -4.34464457	         -5.44597943	          0.10000000	          0.10000000	          0.10000000	          0.10000000	          0.10000000	          0.10000000	          0.10000000	          0.10000000	          0.10000000	          0.10000000	          0.10000000	          0.10000000	          0.10000000	          0.10000000	          0.10000000	          0.10000000	          0.10000000	          0.10000000	
          1.49800000	          0.49744248	          1.44266015	          0.89879863	        -15.16317226	         23.75344619	        -28.85055408	        -18.71704103	         -4.02608060	         -4.40279386	         -5.17834946	          0.10000000	          0.10000000	          0.10000000	          0.10000000	          0.10000000	          0.10000000	          0.10000000	          0.10000000	          0.10000000	          0.10000000	          0.10000000	          0.10000000	          0.10000000	          0.10000000	          0.10000000	          0.10000000	          0.10000000	          0.10000000	
          1.51200000	          0.37443052	          1.45714895	          0.89932335	        -13.78246058	         23.46852539	        -32.10689441	        -19.77435106	         -6.22421371	         -4.23886988	         -4.93679854	          0.10000000	          0.10000000	          0.10000000	          0.10000000	          0.10000000	          0.10000000	          0.10000000	          0.10000000	          0.10000000	          0.10000000	          0.10000000	          0.10000000	          0.10000000	          0.10000000	          0.10000000	          0.10000000	          0.10000000	          0.10000000	
